<svg width="512" height="512" xmlns="http://www.w3.org/2000/svg" fill="none">

 <g>
  <title>Layer 1</title>
  <path stroke="#000000" stroke-opacity="0" id="svg_1" fill="#ffffff" d="m39.20669,472.91755c37.20644,37.20745 97.08948,37.20745 216.85581,37.20745c119.76506,0 179.65013,0 216.85505,-37.20745c37.20745,-37.20491 37.20745,-97.08998 37.20745,-216.85505c0,-119.76633 0,-179.64937 -37.20745,-216.85581c-37.20491,-37.20669 -97.08998,-37.20669 -216.85505,-37.20669c-119.76633,0 -179.64937,0 -216.85581,37.20669c-37.20669,37.20644 -37.20669,97.08948 -37.20669,216.85581c0,119.76506 0,179.65013 37.20669,216.85505zm388.348,-115.23005c0,10.52327 -8.53142,19.05469 -19.05469,19.05469l-304.875,0c-10.52352,0 -19.05469,-8.53142 -19.05469,-19.05469c0,-10.52327 8.53116,-19.05469 19.05469,-19.05469l304.875,0c10.52327,0 19.05469,8.53142 19.05469,19.05469zm-19.05469,-82.57031c10.52327,0 19.05469,-8.53142 19.05469,-19.05469c0,-10.52327 -8.53142,-19.05469 -19.05469,-19.05469l-304.875,0c-10.52352,0 -19.05469,8.53142 -19.05469,19.05469c0,10.52327 8.53116,19.05469 19.05469,19.05469l304.875,0zm19.05469,-120.67969c0,10.52352 -8.53142,19.05469 -19.05469,19.05469l-304.875,0c-10.52352,0 -19.05469,-8.53116 -19.05469,-19.05469c0,-10.52352 8.53116,-19.05469 19.05469,-19.05469l304.875,0c10.52327,0 19.05469,8.53116 19.05469,19.05469z" clip-rule="evenodd" fill-rule="evenodd"/>
 </g>
</svg>